<svg xmlns="http://www.w3.org/2000/svg" xmlns:xlink="http://www.w3.org/1999/xlink" preserveAspectRatio="xMidYMid" width="27" height="26" viewBox="0 0 27 26">
  <defs>
    <style>

      .cls-2 {
        fill: #ffffff;
      }
    </style>
  </defs>
  <path d="M25.855,21.299 C25.855,21.299 23.262,21.299 23.262,21.299 C23.262,21.299 23.262,4.106 23.262,4.106 C23.262,4.106 25.989,1.431 25.989,1.431 C26.246,1.179 26.246,0.770 25.989,0.517 C25.732,0.265 25.314,0.265 25.057,0.517 C25.057,0.517 22.331,3.192 22.331,3.192 C22.331,3.192 5.148,3.192 5.148,3.192 C5.148,3.192 4.801,3.192 4.801,3.192 C4.801,3.192 4.801,0.646 4.801,0.646 C4.801,0.289 4.506,-0.000 4.143,-0.000 C3.779,-0.000 3.484,0.289 3.484,0.646 C3.484,0.646 3.484,3.192 3.484,3.192 C3.484,3.192 0.659,3.192 0.659,3.192 C0.295,3.192 -0.000,3.481 -0.000,3.838 C-0.000,4.195 0.295,4.484 0.659,4.484 C0.659,4.484 3.484,4.484 3.484,4.484 C3.484,4.484 3.484,5.050 3.484,5.050 C3.484,5.050 3.484,21.945 3.484,21.945 C3.484,22.302 3.779,22.591 4.143,22.591 C4.143,22.591 21.366,22.591 21.366,22.591 C21.366,22.591 21.942,22.591 21.942,22.591 C21.942,22.591 21.942,25.354 21.942,25.354 C21.942,25.711 22.237,26.000 22.601,26.000 C22.965,26.000 23.260,25.711 23.260,25.354 C23.260,25.354 23.260,22.591 23.260,22.591 C23.260,22.591 25.855,22.591 25.855,22.591 C26.219,22.591 26.514,22.302 26.514,21.945 C26.514,21.588 26.219,21.299 25.855,21.299 ZM5.148,4.484 C5.148,4.484 21.013,4.484 21.013,4.484 C21.013,4.484 4.801,20.385 4.801,20.385 C4.801,20.385 4.801,5.050 4.801,5.050 C4.801,5.050 4.801,4.484 4.801,4.484 C4.801,4.484 5.148,4.484 5.148,4.484 C5.148,4.484 5.148,4.484 5.148,4.484 ZM21.366,21.299 C21.366,21.299 5.733,21.299 5.733,21.299 C5.733,21.299 21.945,5.398 21.945,5.398 C21.945,5.398 21.945,20.925 21.945,20.925 C21.945,20.933 21.942,20.941 21.942,20.950 C21.942,20.950 21.942,21.299 21.942,21.299 C21.942,21.299 21.366,21.299 21.366,21.299 Z" id="path-1" class="cls-2" fill-rule="evenodd"/>
</svg>
