<svg xmlns="http://www.w3.org/2000/svg" xmlns:xlink="http://www.w3.org/1999/xlink" preserveAspectRatio="xMidYMid" width="26" height="25" viewBox="0 0 26 25">
  <defs>
    <style>

      .cls-2 {
        fill: #333;
      }
    </style>
  </defs>
  <path d="M13.650,6.579 C13.650,6.579 11.700,6.579 11.700,6.579 C11.700,6.579 11.700,13.289 11.700,13.289 C11.700,13.289 17.810,16.974 17.810,16.974 C17.810,16.974 18.850,15.263 18.850,15.263 C18.850,15.263 13.650,12.105 13.650,12.105 C13.650,12.105 13.650,6.579 13.650,6.579 M13.650,-0.000 C9.100,-0.000 5.070,2.500 2.990,6.316 C2.990,6.316 -0.000,3.289 -0.000,3.289 C-0.000,3.289 -0.000,11.842 -0.000,11.842 C-0.000,11.842 8.450,11.842 8.450,11.842 C8.450,11.842 4.810,8.158 4.810,8.158 C6.500,4.868 9.750,2.631 13.650,2.631 C18.980,2.631 23.400,7.105 23.400,12.500 C23.400,17.895 18.980,22.368 13.650,22.368 C9.360,22.368 5.850,19.605 4.420,15.789 C4.420,15.789 1.690,15.789 1.690,15.789 C3.120,21.052 7.930,25.000 13.650,25.000 C20.540,25.000 26.000,19.342 26.000,12.500 C26.000,5.658 20.410,-0.000 13.650,-0.000 " id="path-1" class="cls-2" fill-rule="evenodd"/>
</svg>
