<svg xmlns="http://www.w3.org/2000/svg" xmlns:xlink="http://www.w3.org/1999/xlink" preserveAspectRatio="xMidYMid" width="23" height="30" viewBox="0 0 23 30">
  <defs>
    <style>

      .cls-2 {
        fill: #333;
      }
    </style>
  </defs>
  <path d="M17.250,30.000 C14.113,30.000 11.500,27.414 11.500,24.310 C11.500,21.207 14.113,18.621 17.250,18.621 C20.386,18.621 23.000,21.207 23.000,24.310 C23.000,27.414 20.386,30.000 17.250,30.000 ZM20.909,23.793 C20.909,23.793 17.773,23.793 17.773,23.793 C17.773,23.793 17.773,20.690 17.773,20.690 C17.773,20.690 16.727,20.690 16.727,20.690 C16.727,20.690 16.727,23.793 16.727,23.793 C16.727,23.793 13.591,23.793 13.591,23.793 C13.591,23.793 13.591,24.827 13.591,24.827 C13.591,24.827 16.727,24.827 16.727,24.827 C16.727,24.827 16.727,27.931 16.727,27.931 C16.727,27.931 17.773,27.931 17.773,27.931 C17.773,27.931 17.773,24.827 17.773,24.827 C17.773,24.827 20.909,24.827 20.909,24.827 C20.909,24.827 20.909,23.793 20.909,23.793 ZM10.454,24.310 C10.454,25.655 10.873,26.896 11.500,27.931 C11.500,27.931 2.091,27.931 2.091,27.931 C0.941,27.931 -0.000,27.000 -0.000,25.862 C-0.000,25.862 -0.000,2.069 -0.000,2.069 C-0.000,0.931 0.941,-0.000 2.091,-0.000 C2.091,-0.000 12.545,-0.000 12.545,-0.000 C12.545,-0.000 12.545,6.207 12.545,6.207 C12.545,7.345 13.486,8.276 14.636,8.276 C14.636,8.276 19.863,8.276 19.863,8.276 C19.863,8.276 19.863,18.103 19.863,18.103 C19.027,17.793 18.191,17.586 17.250,17.586 C13.486,17.586 10.454,20.586 10.454,24.310 ZM13.591,6.207 C13.591,6.207 13.591,-0.000 13.591,-0.000 C13.591,-0.000 19.863,7.241 19.863,7.241 C19.863,7.241 14.636,7.241 14.636,7.241 C14.113,7.241 13.591,6.827 13.591,6.207 Z" id="path-1" class="cls-2" fill-rule="evenodd"/>
</svg>
