<svg xmlns="http://www.w3.org/2000/svg" xmlns:xlink="http://www.w3.org/1999/xlink" preserveAspectRatio="xMidYMid" width="25" height="24" viewBox="0 0 25 24">
  <defs>
    <style>

      .cls-2 {
        fill: #0288d1;
      }
    </style>
  </defs>
  <path d="M20.516,3.509 C15.827,-1.179 8.198,-1.179 3.509,3.508 C-1.180,8.195 -1.179,15.822 3.510,20.510 C8.198,25.197 15.827,25.197 20.516,20.510 C25.205,15.822 25.204,8.196 20.516,3.509 ZM19.204,19.199 C15.239,23.163 8.786,23.163 4.821,19.199 C0.855,15.234 0.855,8.783 4.821,4.819 C8.786,0.855 15.238,0.855 19.205,4.819 C23.170,8.784 23.170,15.235 19.204,19.199 ZM7.527,8.755 C7.527,7.980 8.156,7.350 8.933,7.350 C9.709,7.350 10.338,7.979 10.338,8.755 C10.338,9.532 9.709,10.161 8.933,10.161 C8.156,10.161 7.527,9.532 7.527,8.755 ZM13.900,8.755 C13.900,7.980 14.530,7.350 15.306,7.350 C16.082,7.350 16.712,7.979 16.712,8.755 C16.712,9.532 16.082,10.161 15.306,10.161 C14.530,10.161 13.900,9.532 13.900,8.755 ZM17.223,14.511 C16.352,16.524 14.312,17.825 12.026,17.825 C9.691,17.825 7.639,16.518 6.798,14.494 C6.654,14.147 6.819,13.749 7.166,13.605 C7.251,13.570 7.339,13.553 7.426,13.553 C7.693,13.553 7.946,13.711 8.054,13.972 C8.684,15.487 10.243,16.466 12.026,16.466 C13.769,16.466 15.319,15.486 15.975,13.971 C16.124,13.626 16.524,13.467 16.869,13.616 C17.213,13.766 17.372,14.166 17.223,14.511 Z" id="path-1" class="cls-2" fill-rule="evenodd"/>
</svg>
