<svg xmlns="http://www.w3.org/2000/svg" xmlns:xlink="http://www.w3.org/1999/xlink" preserveAspectRatio="xMidYMid" width="22" height="20" viewBox="0 0 22 20">
  <defs>
    <style>

      .cls-2 {
        fill: #ffffff;
      }
    </style>
  </defs>
  <path d="M21.972,0.627 C21.972,0.627 15.398,18.200 15.398,18.200 C15.231,18.644 14.862,18.987 14.398,19.125 C13.933,19.263 13.429,19.180 13.038,18.902 C13.038,18.902 6.892,14.535 6.892,14.535 C6.892,14.535 21.011,0.951 21.011,0.951 C21.011,0.951 5.043,13.219 5.043,13.219 C5.043,13.219 0.547,10.025 0.547,10.025 C0.137,9.733 -0.077,9.246 -0.011,8.753 C0.056,8.261 0.393,7.845 0.867,7.667 C0.867,7.667 21.329,0.009 21.329,0.009 C21.511,-0.059 21.715,-0.017 21.853,0.116 C21.992,0.249 22.038,0.449 21.972,0.627 ZM6.530,19.839 C6.228,20.029 5.848,20.059 5.518,19.920 C5.188,19.780 4.952,19.490 4.886,19.143 C4.886,19.143 4.014,14.485 4.014,14.485 C4.014,14.485 3.976,14.281 3.976,14.281 C3.976,14.281 9.289,17.998 9.289,17.998 C9.332,18.058 7.745,19.074 6.530,19.839 Z" id="path-1" class="cls-2" fill-rule="evenodd"/>
</svg>
