<svg xmlns="http://www.w3.org/2000/svg" xmlns:xlink="http://www.w3.org/1999/xlink" preserveAspectRatio="xMidYMid" width="20" height="19" viewBox="0 0 20 19">
  <defs>
    <style>

      .cls-2 {
        fill: #0288d1;
      }
    </style>
  </defs>
  <path d="M18.720,19.000 C18.720,19.000 1.280,19.000 1.280,19.000 C0.574,19.000 -0.000,18.445 -0.000,17.762 C-0.000,17.762 -0.000,2.804 -0.000,2.804 C-0.000,2.121 0.574,1.566 1.280,1.566 C1.280,1.566 3.460,1.566 3.460,1.566 C3.460,1.566 3.460,3.667 3.460,3.667 C3.460,4.429 4.100,5.048 4.887,5.048 C4.887,5.048 5.173,5.048 5.173,5.048 C5.960,5.048 6.601,4.429 6.601,3.667 C6.601,3.667 6.601,1.566 6.601,1.566 C6.601,1.566 13.559,1.566 13.559,1.566 C13.559,1.566 13.559,3.648 13.559,3.648 C13.559,4.410 14.199,5.029 14.986,5.029 C14.986,5.029 15.272,5.029 15.272,5.029 C16.059,5.029 16.699,4.609 16.699,3.848 C16.699,3.848 16.699,1.566 16.699,1.566 C16.699,1.566 18.720,1.566 18.720,1.566 C19.426,1.566 20.000,2.121 20.000,2.804 C20.000,2.804 20.000,17.762 20.000,17.762 C20.000,18.445 19.426,19.000 18.720,19.000 ZM18.720,6.466 C18.720,6.466 1.280,6.466 1.280,6.466 C1.280,6.466 1.280,17.762 1.280,17.762 C1.280,17.762 18.720,17.762 18.720,17.762 C18.721,17.762 18.721,17.762 18.721,17.762 C18.721,17.762 18.720,6.466 18.720,6.466 ZM16.710,16.557 C16.710,16.557 14.411,16.557 14.411,16.557 C14.320,16.557 14.246,16.485 14.246,16.397 C14.246,16.397 14.246,14.473 14.246,14.473 C14.246,14.385 14.320,14.313 14.411,14.313 C14.411,14.313 16.710,14.313 16.710,14.313 C16.801,14.313 16.875,14.385 16.875,14.473 C16.875,14.473 16.875,16.397 16.875,16.397 C16.875,16.485 16.801,16.557 16.710,16.557 ZM16.710,13.406 C16.710,13.406 14.411,13.406 14.411,13.406 C14.320,13.406 14.246,13.335 14.246,13.246 C14.246,13.246 14.246,11.322 14.246,11.322 C14.246,11.234 14.320,11.162 14.411,11.162 C14.411,11.162 16.710,11.162 16.710,11.162 C16.801,11.162 16.875,11.234 16.875,11.322 C16.875,11.322 16.875,13.246 16.875,13.246 C16.875,13.335 16.801,13.406 16.710,13.406 ZM16.710,10.255 C16.710,10.255 14.411,10.255 14.411,10.255 C14.320,10.255 14.246,10.184 14.246,10.096 C14.246,10.096 14.246,8.171 14.246,8.171 C14.246,8.083 14.320,8.011 14.411,8.011 C14.411,8.011 16.710,8.011 16.710,8.011 C16.801,8.011 16.875,8.083 16.875,8.171 C16.875,8.171 16.875,10.096 16.875,10.096 C16.875,10.184 16.801,10.255 16.710,10.255 ZM12.959,16.557 C12.959,16.557 10.661,16.557 10.661,16.557 C10.570,16.557 10.496,16.485 10.496,16.397 C10.496,16.397 10.496,14.473 10.496,14.473 C10.496,14.385 10.570,14.313 10.661,14.313 C10.661,14.313 12.959,14.313 12.959,14.313 C13.050,14.313 13.124,14.385 13.124,14.473 C13.124,14.473 13.124,16.397 13.124,16.397 C13.124,16.485 13.050,16.557 12.959,16.557 ZM12.959,13.406 C12.959,13.406 10.661,13.406 10.661,13.406 C10.570,13.406 10.496,13.335 10.496,13.246 C10.496,13.246 10.496,11.322 10.496,11.322 C10.496,11.234 10.570,11.162 10.661,11.162 C10.661,11.162 12.959,11.162 12.959,11.162 C13.050,11.162 13.124,11.234 13.124,11.322 C13.124,11.322 13.124,13.246 13.124,13.246 C13.124,13.335 13.050,13.406 12.959,13.406 ZM12.959,10.255 C12.959,10.255 10.661,10.255 10.661,10.255 C10.570,10.255 10.496,10.184 10.496,10.096 C10.496,10.096 10.496,8.171 10.496,8.171 C10.496,8.083 10.570,8.011 10.661,8.011 C10.661,8.011 12.959,8.011 12.959,8.011 C13.050,8.011 13.124,8.083 13.124,8.171 C13.124,8.171 13.124,10.096 13.124,10.096 C13.124,10.184 13.050,10.255 12.959,10.255 ZM9.208,16.557 C9.208,16.557 6.910,16.557 6.910,16.557 C6.819,16.557 6.745,16.485 6.745,16.397 C6.745,16.397 6.745,14.473 6.745,14.473 C6.745,14.385 6.819,14.313 6.910,14.313 C6.910,14.313 9.208,14.313 9.208,14.313 C9.299,14.313 9.373,14.385 9.373,14.473 C9.373,14.473 9.373,16.397 9.373,16.397 C9.373,16.485 9.299,16.557 9.208,16.557 ZM9.208,13.406 C9.208,13.406 6.910,13.406 6.910,13.406 C6.819,13.406 6.745,13.335 6.745,13.246 C6.745,13.246 6.745,11.322 6.745,11.322 C6.745,11.234 6.819,11.162 6.910,11.162 C6.910,11.162 9.208,11.162 9.208,11.162 C9.299,11.162 9.373,11.234 9.373,11.322 C9.373,11.322 9.373,13.246 9.373,13.246 C9.373,13.335 9.299,13.406 9.208,13.406 ZM5.458,16.557 C5.458,16.557 3.160,16.557 3.160,16.557 C3.068,16.557 2.994,16.485 2.994,16.397 C2.994,16.397 2.994,14.473 2.994,14.473 C2.994,14.385 3.068,14.313 3.160,14.313 C3.160,14.313 5.458,14.313 5.458,14.313 C5.549,14.313 5.623,14.385 5.623,14.473 C5.623,14.473 5.623,16.397 5.623,16.397 C5.623,16.485 5.549,16.557 5.458,16.557 ZM5.458,13.406 C5.458,13.406 3.160,13.406 3.160,13.406 C3.068,13.406 2.994,13.335 2.994,13.246 C2.994,13.246 2.994,11.322 2.994,11.322 C2.994,11.234 3.068,11.162 3.160,11.162 C3.160,11.162 5.458,11.162 5.458,11.162 C5.549,11.162 5.623,11.234 5.623,11.322 C5.623,11.322 5.623,13.246 5.623,13.246 C5.623,13.335 5.549,13.406 5.458,13.406 ZM15.272,4.410 C15.272,4.410 14.986,4.410 14.986,4.410 C14.551,4.410 14.199,4.069 14.198,3.648 C14.198,3.648 14.198,1.367 14.198,1.367 C14.198,1.367 14.198,0.761 14.198,0.761 C14.198,0.341 14.551,-0.000 14.986,-0.000 C14.986,-0.000 15.272,-0.000 15.272,-0.000 C15.707,-0.000 16.059,0.341 16.059,0.761 C16.059,0.761 16.059,1.367 16.059,1.367 C16.059,1.367 16.059,3.649 16.059,3.649 C16.059,4.069 15.707,4.410 15.272,4.410 ZM5.173,4.429 C5.173,4.429 4.887,4.429 4.887,4.429 C4.452,4.429 4.100,4.088 4.100,3.667 C4.100,3.667 4.100,1.566 4.100,1.566 C4.100,1.566 4.100,0.780 4.100,0.780 C4.100,0.360 4.452,0.019 4.887,0.019 C4.887,0.019 5.173,0.019 5.173,0.019 C5.608,0.019 5.961,0.360 5.961,0.780 C5.961,0.780 5.961,1.566 5.961,1.566 C5.961,1.566 5.961,3.667 5.961,3.667 C5.961,4.088 5.608,4.429 5.173,4.429 Z" id="path-1" class="cls-2" fill-rule="evenodd"/>
</svg>
