<svg xmlns="http://www.w3.org/2000/svg" width="19" height="19" viewBox="0 0 19 19">
  <defs>
    <style>
      .cls-1 {
        fill: #787878;
        fill-rule: evenodd;
      }
    </style>
  </defs>
  <path id="Cropping_Target" data-name="Cropping Target" class="cls-1" d="M779.309,791h-5.365a0.716,0.716,0,0,0-.691.737v0.316a0.716,0.716,0,0,0,.691.738h4.379v4.676a0.715,0.715,0,0,0,.69.737h0.3a0.715,0.715,0,0,0,.691-0.737v-5.73A0.715,0.715,0,0,0,779.309,791Zm-12.253,0h-5.365a0.715,0.715,0,0,0-.691.737v5.73a0.715,0.715,0,0,0,.691.737h0.295a0.715,0.715,0,0,0,.691-0.737v-4.676h4.379a0.715,0.715,0,0,0,.69-0.738v-0.316A0.715,0.715,0,0,0,767.056,791Zm0,17.209h-4.379v-4.676a0.715,0.715,0,0,0-.691-0.737h-0.295a0.715,0.715,0,0,0-.691.737v5.729a0.715,0.715,0,0,0,.691.738h5.365a0.715,0.715,0,0,0,.69-0.738v-0.316A0.715,0.715,0,0,0,767.056,808.209Zm12.253-5.413h-0.3a0.715,0.715,0,0,0-.69.737v4.676h-4.379a0.716,0.716,0,0,0-.691.737v0.316a0.716,0.716,0,0,0,.691.738h5.365a0.715,0.715,0,0,0,.691-0.738v-5.729A0.715,0.715,0,0,0,779.309,802.8Zm-6.967-3.192h-1v-1.071a0.716,0.716,0,0,0-.691-0.737h-0.3a0.716,0.716,0,0,0-.691.737V799.6h-1a0.716,0.716,0,0,0-.69.738v0.316a0.715,0.715,0,0,0,.69.737h1v1.072a0.716,0.716,0,0,0,.691.737h0.3a0.716,0.716,0,0,0,.691-0.737V801.4h1a0.715,0.715,0,0,0,.69-0.737v-0.316A0.716,0.716,0,0,0,772.342,799.6Z" transform="translate(-761 -791)"/>
</svg>
