<svg xmlns="http://www.w3.org/2000/svg" xmlns:xlink="http://www.w3.org/1999/xlink" preserveAspectRatio="xMidYMid" width="16" height="16" viewBox="0 0 16 16">
  <defs>
    <style>

      .cls-2 {
        fill: #aaaaaa;
      }
    </style>
  </defs>
  <path d="M15.431,11.139 C14.584,13.111 13.145,14.555 11.153,15.404 C10.158,15.828 9.115,16.044 8.026,16.044 C6.937,16.044 5.902,15.830 4.908,15.404 C2.933,14.557 1.487,13.115 0.638,11.139 C0.213,10.149 0.006,9.103 0.006,8.015 C0.006,6.926 0.213,5.889 0.638,4.899 C1.487,2.923 2.933,1.489 4.908,0.643 C5.902,0.217 6.937,0.003 8.026,0.003 C9.115,0.003 10.158,0.219 11.153,0.643 C13.145,1.492 14.584,2.927 15.431,4.899 C15.858,5.893 16.073,6.926 16.073,8.015 C16.073,9.103 15.858,10.145 15.431,11.139 ZM14.149,4.487 C13.516,3.407 12.654,2.549 11.566,1.916 C10.485,1.286 9.300,0.968 8.026,0.968 C6.752,0.968 5.575,1.284 4.495,1.916 C3.415,2.548 2.550,3.406 1.921,4.487 C1.294,5.564 0.981,6.742 0.981,8.015 C0.981,8.971 1.162,9.894 1.535,10.761 C1.908,11.632 2.408,12.389 3.037,13.017 C3.665,13.644 4.416,14.140 5.285,14.517 C6.155,14.895 7.069,15.079 8.026,15.079 C9.300,15.079 10.485,14.761 11.566,14.131 C12.654,13.497 13.518,12.640 14.149,11.560 C14.783,10.473 15.097,9.287 15.097,8.015 C15.097,6.742 14.781,5.566 14.149,4.487 ZM10.319,11.104 C10.319,11.104 7.692,8.480 7.692,8.480 C7.587,8.374 7.543,8.243 7.561,8.085 C7.561,8.059 7.543,8.023 7.543,8.015 C7.543,8.015 7.543,3.399 7.543,3.399 C7.543,3.127 7.771,2.907 8.026,2.907 C8.298,2.907 8.536,3.127 8.536,3.399 C8.536,3.399 8.536,7.944 8.536,7.944 C8.536,7.944 10.995,10.419 10.995,10.419 C11.184,10.609 11.197,10.902 10.995,11.104 C10.820,11.279 10.495,11.279 10.319,11.104 Z" id="path-1" class="cls-2" fill-rule="evenodd"/>
</svg>
