<svg xmlns="http://www.w3.org/2000/svg" xmlns:xlink="http://www.w3.org/1999/xlink" preserveAspectRatio="xMidYMid" width="21" height="30" viewBox="0 0 21 30">
  <defs>
    <style>

      .cls-2 {
        fill: #333;
      }
    </style>
  </defs>
  <path d="M18.789,30.000 C18.789,30.000 2.210,30.000 2.210,30.000 C0.994,30.000 -0.000,29.069 -0.000,27.931 C-0.000,27.931 -0.000,6.207 -0.000,6.207 C-0.000,5.069 0.994,4.138 2.210,4.138 C2.210,4.138 3.316,4.138 3.316,4.138 C3.316,4.138 3.316,5.172 3.316,5.172 C3.316,6.310 4.310,7.241 5.526,7.241 C5.526,7.241 15.473,7.241 15.473,7.241 C16.689,7.241 17.684,6.310 17.684,5.172 C17.684,5.172 17.684,4.138 17.684,4.138 C17.684,4.138 18.789,4.138 18.789,4.138 C20.005,4.138 21.000,5.069 21.000,6.207 C21.000,6.207 21.000,27.931 21.000,27.931 C21.000,29.069 20.005,30.000 18.789,30.000 ZM6.631,11.379 C6.631,11.379 3.316,11.379 3.316,11.379 C3.316,11.379 3.316,14.483 3.316,14.483 C3.316,14.483 6.631,14.483 6.631,14.483 C6.631,14.483 6.631,11.379 6.631,11.379 ZM6.631,16.552 C6.631,16.552 3.316,16.552 3.316,16.552 C3.316,16.552 3.316,19.655 3.316,19.655 C3.316,19.655 6.631,19.655 6.631,19.655 C6.631,19.655 6.631,16.552 6.631,16.552 ZM6.631,21.724 C6.631,21.724 3.316,21.724 3.316,21.724 C3.316,21.724 3.316,24.827 3.316,24.827 C3.316,24.827 6.631,24.827 6.631,24.827 C6.631,24.827 6.631,21.724 6.631,21.724 ZM17.684,12.414 C17.684,12.414 8.842,12.414 8.842,12.414 C8.842,12.414 8.842,13.448 8.842,13.448 C8.842,13.448 17.684,13.448 17.684,13.448 C17.684,13.448 17.684,12.414 17.684,12.414 ZM17.684,17.586 C17.684,17.586 8.842,17.586 8.842,17.586 C8.842,17.586 8.842,18.621 8.842,18.621 C8.842,18.621 17.684,18.621 17.684,18.621 C17.684,18.621 17.684,17.586 17.684,17.586 ZM17.684,22.758 C17.684,22.758 8.842,22.758 8.842,22.758 C8.842,22.758 8.842,23.793 8.842,23.793 C8.842,23.793 17.684,23.793 17.684,23.793 C17.684,23.793 17.684,22.758 17.684,22.758 ZM5.526,23.793 C5.526,23.793 4.421,23.793 4.421,23.793 C4.421,23.793 4.421,22.758 4.421,22.758 C4.421,22.758 5.526,22.758 5.526,22.758 C5.526,22.758 5.526,23.793 5.526,23.793 ZM5.526,18.621 C5.526,18.621 4.421,18.621 4.421,18.621 C4.421,18.621 4.421,17.586 4.421,17.586 C4.421,17.586 5.526,17.586 5.526,17.586 C5.526,17.586 5.526,18.621 5.526,18.621 ZM5.526,13.448 C5.526,13.448 4.421,13.448 4.421,13.448 C4.421,13.448 4.421,12.414 4.421,12.414 C4.421,12.414 5.526,12.414 5.526,12.414 C5.526,12.414 5.526,13.448 5.526,13.448 ZM15.473,6.207 C15.473,6.207 5.526,6.207 5.526,6.207 C4.863,6.207 4.421,5.793 4.421,5.172 C4.421,5.172 4.421,4.138 4.421,4.138 C4.421,3.517 4.973,3.103 5.526,3.103 C5.526,3.103 7.737,3.103 7.737,3.103 C7.737,3.103 7.737,2.069 7.737,2.069 C7.737,0.931 8.731,-0.000 9.947,-0.000 C9.947,-0.000 11.052,-0.000 11.052,-0.000 C12.268,-0.000 13.263,0.931 13.263,2.069 C13.263,2.069 13.263,3.103 13.263,3.103 C13.263,3.103 15.473,3.103 15.473,3.103 C16.137,3.103 16.579,3.517 16.579,4.138 C16.579,4.138 16.579,5.172 16.579,5.172 C16.579,5.793 16.026,6.207 15.473,6.207 ZM10.500,2.069 C10.168,2.069 9.947,2.276 9.947,2.586 C9.947,2.896 10.168,3.103 10.500,3.103 C10.831,3.103 11.052,2.896 11.052,2.586 C11.052,2.276 10.831,2.069 10.500,2.069 Z" id="path-1" class="cls-2" fill-rule="evenodd"/>
</svg>
