<svg xmlns="http://www.w3.org/2000/svg" xmlns:xlink="http://www.w3.org/1999/xlink" preserveAspectRatio="xMidYMid" width="40" height="40" viewBox="0 0 40 40">
  <defs>
    <style>

      .cls-2 {
        fill: #ffffff;
      }
    </style>
  </defs>
  <path d="M20.002,40.006 C8.971,40.006 -0.003,31.033 -0.003,20.003 C-0.003,8.972 8.971,-0.003 20.002,-0.003 C31.033,-0.003 40.006,8.971 40.006,20.003 C40.006,31.033 31.032,40.006 20.002,40.006 ZM20.002,1.354 C9.720,1.354 1.354,9.720 1.354,20.003 C1.354,30.284 9.720,38.650 20.002,38.650 C30.284,38.650 38.650,30.284 38.650,20.003 C38.650,9.720 30.284,1.354 20.002,1.354 ZM28.426,20.680 C28.426,20.680 20.680,20.680 20.680,20.680 C20.680,20.680 20.680,28.425 20.680,28.425 C20.680,28.800 20.377,29.104 20.002,29.104 C19.628,29.104 19.324,28.800 19.324,28.425 C19.324,28.425 19.324,20.680 19.324,20.680 C19.324,20.680 11.578,20.680 11.578,20.680 C11.203,20.680 10.900,20.376 10.900,20.002 C10.900,19.627 11.203,19.323 11.578,19.323 C11.578,19.323 19.324,19.323 19.324,19.323 C19.324,19.323 19.324,11.578 19.324,11.578 C19.324,11.204 19.628,10.900 20.002,10.900 C20.377,10.900 20.680,11.204 20.680,11.578 C20.680,11.578 20.680,19.323 20.680,19.323 C20.680,19.323 28.426,19.323 28.426,19.323 C28.800,19.323 29.104,19.627 29.104,20.002 C29.104,20.376 28.800,20.680 28.426,20.680 Z" id="path-1" class="cls-2" fill-rule="evenodd"/>
</svg>
