<svg xmlns="http://www.w3.org/2000/svg" xmlns:xlink="http://www.w3.org/1999/xlink" preserveAspectRatio="xMidYMid" width="26" height="25" viewBox="0 0 26 25">
  <defs>
    <style>

      .cls-2 {
        fill: #333;
      }
    </style>
  </defs>
  <path d="M25.439,14.568 C25.439,14.568 24.742,14.706 24.742,14.706 C24.664,15.124 24.527,15.530 24.340,15.915 C24.340,15.915 24.851,16.440 24.851,16.440 C25.093,16.690 25.104,17.077 24.876,17.340 C24.876,17.340 24.134,18.194 24.134,18.194 C23.905,18.456 23.512,18.510 23.216,18.321 C23.216,18.321 22.583,17.914 22.583,17.914 C22.218,18.156 21.822,18.351 21.403,18.494 C21.403,18.494 21.378,19.242 21.378,19.242 C21.367,19.586 21.091,19.865 20.739,19.895 C20.739,19.895 19.593,19.990 19.593,19.990 C19.242,20.017 18.921,19.784 18.851,19.448 C18.851,19.448 18.692,18.684 18.692,18.684 C18.285,18.608 17.889,18.481 17.512,18.310 C17.512,18.310 16.938,18.833 16.938,18.833 C16.681,19.069 16.282,19.079 16.012,18.857 C16.012,18.857 15.133,18.137 15.133,18.137 C14.863,17.914 14.807,17.532 15.002,17.245 C15.002,17.245 15.440,16.603 15.440,16.603 C15.214,16.281 15.027,15.937 14.885,15.574 C14.885,15.574 14.101,15.549 14.101,15.549 C13.747,15.538 13.460,15.270 13.429,14.929 C13.429,14.929 13.332,13.815 13.332,13.815 C13.304,13.474 13.544,13.162 13.889,13.094 C13.889,13.094 14.615,12.951 14.615,12.951 C14.687,12.536 14.813,12.133 14.988,11.748 C14.988,11.748 14.481,11.222 14.481,11.222 C14.238,10.973 14.227,10.585 14.456,10.323 C14.456,10.323 15.198,9.464 15.198,9.464 C15.426,9.201 15.820,9.147 16.115,9.336 C16.115,9.336 16.695,9.710 16.695,9.710 C17.075,9.445 17.490,9.233 17.931,9.079 C17.931,9.079 17.953,8.418 17.953,8.418 C17.964,8.074 18.240,7.795 18.592,7.765 C18.592,7.765 19.738,7.670 19.738,7.670 C20.090,7.643 20.410,7.876 20.480,8.212 C20.480,8.212 20.617,8.862 20.617,8.862 C21.066,8.941 21.501,9.076 21.911,9.269 C21.911,9.269 22.396,8.827 22.396,8.827 C22.653,8.591 23.052,8.581 23.322,8.803 C23.322,8.803 24.201,9.523 24.201,9.523 C24.471,9.746 24.527,10.130 24.326,10.417 C24.326,10.417 23.944,10.976 23.944,10.976 C24.187,11.322 24.382,11.696 24.527,12.092 C24.527,12.092 25.227,12.114 25.227,12.114 C25.581,12.124 25.869,12.393 25.899,12.734 C25.899,12.734 25.997,13.848 25.997,13.848 C26.025,14.189 25.785,14.501 25.439,14.568 ZM19.501,11.599 C18.263,11.699 17.340,12.761 17.445,13.964 C17.549,15.167 18.642,16.064 19.880,15.961 C21.119,15.861 22.042,14.799 21.936,13.596 C21.833,12.393 20.739,11.496 19.501,11.599 ZM14.785,8.935 C14.785,8.935 13.792,9.047 13.792,9.047 C13.652,9.548 13.443,10.027 13.175,10.477 C13.175,10.477 13.820,11.271 13.820,11.271 C14.043,11.545 14.021,11.935 13.767,12.181 C13.767,12.181 12.590,13.325 12.590,13.325 C12.336,13.569 11.934,13.593 11.652,13.376 C11.652,13.376 10.824,12.740 10.824,12.740 C10.353,12.997 9.851,13.195 9.326,13.327 C9.326,13.327 9.204,14.360 9.204,14.360 C9.162,14.706 8.861,14.967 8.504,14.967 C8.504,14.967 6.839,14.967 6.839,14.967 C6.481,14.967 6.180,14.706 6.138,14.360 C6.138,14.360 6.010,13.289 6.010,13.289 C5.522,13.154 5.053,12.962 4.613,12.715 C4.613,12.715 3.757,13.373 3.757,13.373 C3.475,13.590 3.073,13.569 2.819,13.322 C2.819,13.322 1.642,12.179 1.642,12.179 C1.391,11.932 1.366,11.542 1.589,11.268 C1.589,11.268 2.273,10.431 2.273,10.431 C2.033,10.019 1.843,9.580 1.707,9.125 C1.707,9.125 0.624,9.003 0.624,9.003 C0.267,8.963 -0.000,8.670 -0.000,8.323 C-0.000,8.323 -0.000,6.706 -0.000,6.706 C-0.000,6.359 0.267,6.066 0.624,6.026 C0.624,6.026 1.651,5.912 1.651,5.912 C1.779,5.413 1.974,4.934 2.231,4.484 C2.231,4.484 1.589,3.695 1.589,3.695 C1.366,3.422 1.389,3.032 1.642,2.785 C1.642,2.785 2.819,1.642 2.819,1.642 C3.073,1.398 3.475,1.374 3.757,1.590 C3.757,1.590 4.524,2.181 4.524,2.181 C5.014,1.896 5.542,1.680 6.094,1.536 C6.094,1.536 6.205,0.607 6.205,0.607 C6.247,0.260 6.548,-0.000 6.905,-0.000 C6.905,-0.000 8.571,-0.000 8.571,-0.000 C8.928,-0.000 9.229,0.260 9.271,0.607 C9.271,0.607 9.382,1.536 9.382,1.536 C9.921,1.677 10.434,1.886 10.913,2.159 C10.913,2.159 11.652,1.590 11.652,1.590 C11.934,1.374 12.336,1.395 12.590,1.642 C12.590,1.642 13.764,2.782 13.764,2.782 C14.015,3.029 14.040,3.419 13.817,3.693 C13.817,3.693 13.214,4.432 13.214,4.432 C13.471,4.877 13.672,5.351 13.806,5.847 C13.806,5.847 14.785,5.958 14.785,5.958 C15.142,5.998 15.409,6.291 15.409,6.638 C15.409,6.638 15.409,8.255 15.409,8.255 C15.409,8.602 15.142,8.895 14.785,8.935 ZM7.739,4.749 C6.222,4.749 4.987,5.950 4.987,7.424 C4.987,8.898 6.222,10.098 7.739,10.098 C9.257,10.098 10.492,8.898 10.492,7.424 C10.492,5.950 9.257,4.749 7.739,4.749 ZM5.717,18.958 C5.717,18.958 6.205,18.909 6.205,18.909 C6.295,18.576 6.431,18.259 6.604,17.961 C6.604,17.961 6.306,17.587 6.306,17.587 C6.088,17.313 6.116,16.928 6.370,16.687 C6.370,16.687 6.878,16.205 6.878,16.205 C7.131,15.964 7.527,15.947 7.804,16.164 C7.804,16.164 8.152,16.440 8.152,16.440 C8.481,16.256 8.836,16.115 9.204,16.023 C9.204,16.023 9.259,15.601 9.259,15.601 C9.304,15.259 9.605,15.005 9.960,15.010 C9.960,15.010 10.665,15.018 10.665,15.018 C11.019,15.021 11.315,15.284 11.351,15.625 C11.351,15.625 11.396,16.050 11.396,16.050 C11.753,16.148 12.093,16.291 12.411,16.478 C12.411,16.478 12.749,16.226 12.749,16.226 C13.030,16.015 13.426,16.042 13.675,16.289 C13.675,16.289 14.168,16.779 14.168,16.779 C14.417,17.026 14.433,17.410 14.210,17.679 C14.210,17.679 13.928,18.015 13.928,18.015 C14.096,18.313 14.224,18.632 14.311,18.963 C14.311,18.963 14.762,19.020 14.762,19.020 C15.114,19.063 15.376,19.356 15.370,19.700 C15.370,19.700 15.362,20.385 15.362,20.385 C15.359,20.730 15.089,21.017 14.737,21.052 C14.737,21.052 14.274,21.098 14.274,21.098 C14.177,21.431 14.034,21.748 13.850,22.046 C13.850,22.046 14.149,22.423 14.149,22.423 C14.366,22.697 14.338,23.081 14.085,23.322 C14.085,23.322 13.580,23.802 13.580,23.802 C13.326,24.043 12.930,24.059 12.654,23.843 C12.654,23.843 12.263,23.537 12.263,23.537 C11.945,23.704 11.611,23.832 11.259,23.916 C11.259,23.916 11.195,24.409 11.195,24.409 C11.150,24.750 10.849,25.005 10.495,25.000 C10.495,25.000 9.789,24.991 9.789,24.991 C9.435,24.989 9.139,24.726 9.103,24.384 C9.103,24.384 9.047,23.864 9.047,23.864 C8.724,23.772 8.414,23.639 8.122,23.471 C8.122,23.471 7.706,23.783 7.706,23.783 C7.424,23.994 7.028,23.967 6.780,23.721 C6.780,23.721 6.286,23.230 6.286,23.230 C6.038,22.984 6.021,22.599 6.244,22.331 C6.244,22.331 6.579,21.930 6.579,21.930 C6.420,21.653 6.297,21.361 6.211,21.055 C6.211,21.055 5.692,20.990 5.692,20.990 C5.341,20.946 5.079,20.654 5.084,20.310 C5.084,20.310 5.093,19.624 5.093,19.624 C5.095,19.280 5.366,18.993 5.717,18.958 ZM10.227,21.748 C11.240,21.759 12.074,20.971 12.085,19.987 C12.096,19.004 11.284,18.194 10.272,18.183 C9.259,18.172 8.425,18.960 8.414,19.944 C8.403,20.927 9.215,21.737 10.227,21.748 Z" id="path-1" class="cls-2" fill-rule="evenodd"/>
</svg>
