<svg xmlns="http://www.w3.org/2000/svg" xmlns:xlink="http://www.w3.org/1999/xlink" preserveAspectRatio="xMidYMid" width="32" height="36" viewBox="0 0 32 36">
  <defs>
    <style>

      .cls-2 {
        fill: #888888;
      }
    </style>
  </defs>
  <path d="M25.652,35.065 C25.652,35.065 6.348,35.065 6.348,35.065 C2.848,35.065 -0.000,32.233 -0.000,28.752 C-0.000,28.752 -0.000,26.568 -0.000,26.568 C-0.000,25.405 0.947,24.463 2.116,24.463 C3.284,24.463 4.232,25.405 4.232,26.568 C4.232,26.568 4.232,28.752 4.232,28.752 C4.232,29.912 5.181,30.856 6.348,30.856 C6.348,30.856 25.652,30.856 25.652,30.856 C26.819,30.856 27.768,29.912 27.768,28.752 C27.768,28.752 27.768,26.568 27.768,26.568 C27.768,25.405 28.715,24.463 29.884,24.463 C31.053,24.463 32.000,25.405 32.000,26.568 C32.000,26.568 32.000,28.752 32.000,28.752 C32.000,32.233 29.152,35.065 25.652,35.065 ZM17.573,27.967 C17.178,28.364 16.641,28.589 16.080,28.592 C16.076,28.592 16.072,28.592 16.068,28.592 C15.511,28.592 14.977,28.374 14.580,27.984 C14.580,27.984 9.209,22.706 9.209,22.706 C8.378,21.889 8.370,20.557 9.191,19.730 C10.013,18.903 11.352,18.895 12.184,19.712 C12.184,19.712 13.884,21.383 13.884,21.383 C13.884,21.383 13.884,2.092 13.884,2.092 C13.884,0.929 14.831,-0.013 16.000,-0.013 C17.169,-0.013 18.116,0.929 18.116,2.092 C18.116,2.092 18.116,21.432 18.116,21.432 C18.116,21.432 19.798,19.738 19.798,19.738 C20.620,18.911 21.960,18.903 22.791,19.720 C23.622,20.537 23.630,21.870 22.809,22.696 C22.809,22.696 17.573,27.967 17.573,27.967 Z" id="path-1" class="cls-2" fill-rule="evenodd"/>
</svg>
